<svg width="76" height="37" viewBox="0 0 76 37" fill="none" xmlns="http://www.w3.org/2000/svg">
<path d="M0.9872 24.3456C0.3536 23.1552 0.0368 21.7536 0.0368 20.1408C0.0368 18.6432 0.2864 17.3088 0.7856 16.1376C1.304 14.9472 1.8608 13.9968 2.456 13.2864C3.0704 12.5568 3.8096 11.9808 4.6736 11.5584C5.5568 11.1168 6.488 10.896 7.4672 10.896C8.8496 10.896 9.9536 11.2896 10.7792 12.0768L14.552 8.9088C14.4752 8.2368 14.4368 7.5744 14.4368 6.9216C14.4368 2.6592 15.56 0.528 17.8064 0.528C18.3824 0.528 18.8336 0.7296 19.16 1.1328C19.4864 1.536 19.6688 2.0544 19.7072 2.688C19.7264 3.6096 19.4288 4.5312 18.8144 5.4528C18.2192 6.3744 17.336 7.3824 16.1648 8.4768C16.76 12.4512 17.0576 15.1584 17.0576 16.5984C17.0576 18.0192 16.8752 19.4016 16.5104 20.7456C16.1456 22.0704 15.5888 23.28 14.84 24.3744C14.0912 25.4688 13.064 26.3232 11.7584 26.9376C10.4528 27.552 8.936 27.8592 7.208 27.8592C4.7312 27.8592 2.8592 27.0144 1.592 25.3248C1.2464 26.5344 1.0736 27.9072 1.0736 29.4432C1.0736 30.9984 1.4768 32.3904 2.2832 33.6192C3.1088 34.8672 4.1648 35.4912 5.4512 35.4912C5.5472 35.4912 5.5952 35.5872 5.5952 35.7792C5.6144 35.9712 5.5664 36.0672 5.4512 36.0672C3.9344 36.0672 2.6864 35.3472 1.7072 33.9072C0.728 32.4864 0.2384 30.9024 0.2384 29.1552C0.2384 27.408 0.488 25.8048 0.9872 24.3456ZM11.2688 12.624C11.8064 13.3536 12.0752 14.1792 12.0752 15.1008C12.0752 16.0032 11.9312 16.8192 11.6432 17.5488C11.3744 18.2592 10.8848 18.8928 10.1744 19.4496C9.4832 19.9872 8.6768 20.256 7.7552 20.256C7.5632 20.256 7.4096 20.208 7.2944 20.112C7.1984 20.016 7.1312 19.8624 7.0928 19.6512C7.9184 19.6512 8.6768 19.2672 9.368 18.4992C10.3664 17.424 10.8656 16.2144 10.8656 14.8704C10.8656 14.3136 10.76 13.776 10.5488 13.2576C8.3984 15.1008 6.584 16.9056 5.1056 18.672C3.6272 20.4384 2.5424 22.3584 1.8512 24.432C2.9456 26.1984 4.664 27.0816 7.0064 27.0816C8.4464 27.0816 9.704 26.7744 10.7792 26.16C11.8736 25.5648 12.728 24.7488 13.3424 23.712C14.552 21.6768 15.1568 19.2096 15.1568 16.3104C15.1568 15.6 14.984 13.44 14.6384 9.8304L11.2688 12.624ZM10.1168 12.6528C9.5024 12 8.6576 11.6736 7.5824 11.6736C6.5072 11.6736 5.5376 11.9328 4.6736 12.4512C3.08 13.4112 1.9376 15.024 1.2464 17.2896C0.9392 18.2496 0.7856 19.2384 0.7856 20.256C0.7856 21.3888 0.968 22.4352 1.3328 23.3952C2.6576 20.0736 5.5856 16.4928 10.1168 12.6528ZM15.9056 5.4528C15.9056 5.9712 15.9536 6.6624 16.0496 7.5264C17.9504 5.664 18.9008 4.0896 18.9008 2.8032C18.9008 1.8048 18.536 1.3056 17.8064 1.3056C16.5392 1.3056 15.9056 2.688 15.9056 5.4528Z" fill="#E38D0B"/>
<path d="M20.342 11.4144C20.342 11.2032 20.4764 11.0976 20.7452 11.0976H22.2428C22.3388 10.7136 22.4636 10.2336 22.6172 9.6576L23.0204 8.16C23.1356 7.7184 23.2316 7.3152 23.3084 6.9504C23.4044 6.5856 23.5772 6.4032 23.8268 6.4032C24.1532 6.4032 24.3836 6.6528 24.518 7.152C24.5756 7.3632 24.6044 7.6224 24.6044 7.9296C24.6044 8.2368 24.5468 8.6304 24.4316 9.1104L23.8844 11.0976H25.67C25.8428 11.0976 25.958 11.1552 26.0156 11.2704C26.0924 11.3856 26.0924 11.5008 26.0156 11.616C25.958 11.712 25.8428 11.76 25.67 11.76H23.7116C22.5212 16.2336 21.926 19.4016 21.926 21.264C21.926 22.6272 22.2332 23.3088 22.8476 23.3088C23.3468 23.3088 24.0476 22.6464 24.95 21.3216C25.8524 19.9968 26.63 18.672 27.2828 17.3472L28.262 15.36H29.0396C28.9244 15.5904 28.7708 15.9072 28.5788 16.3104C28.406 16.6944 28.0508 17.3952 27.5132 18.4128C26.9756 19.4112 26.4572 20.2944 25.958 21.0624C25.478 21.8304 24.9308 22.5312 24.3164 23.1648C23.7212 23.7792 23.1644 24.0864 22.646 24.0864C22.1276 24.0864 21.6764 23.9232 21.2924 23.5968C20.9276 23.2512 20.6972 22.7712 20.6012 22.1568C20.486 21.5232 20.4284 20.88 20.4284 20.2272C20.4284 18.7104 20.966 15.888 22.0412 11.76H20.7452C20.5916 11.76 20.486 11.7216 20.4284 11.6448C20.3708 11.5488 20.342 11.472 20.342 11.4144ZM36.2852 23.3088C36.7844 23.3088 37.4852 22.6464 38.3876 21.3216C39.29 19.9968 40.0676 18.672 40.7204 17.3472L41.6996 15.36H42.4772C42.362 15.5904 42.2084 15.9072 42.0164 16.3104C41.8436 16.6944 41.4884 17.3952 40.9508 18.4128C40.4132 19.4112 39.8948 20.2944 39.3956 21.0624C38.9156 21.8304 38.3684 22.5312 37.754 23.1648C37.1588 23.7792 36.5924 24.0864 36.0548 24.0864C35.5172 24.0864 35.0756 23.9232 34.73 23.5968C34.3076 23.1744 34.0964 22.4352 34.0964 21.3792C34.0964 20.3232 34.2788 18.9312 34.6436 17.2032H34.442C32.234 21.7344 30.4004 24 28.9412 24C27.6548 24 27.0116 23.1648 27.0116 21.4944C27.0116 20.2848 27.53 17.8752 28.5668 14.2656C28.7972 13.44 28.97 12.8256 29.0852 12.4224C29.2004 12 29.3828 11.7888 29.6324 11.7888C29.978 11.7888 30.2276 12.0384 30.3812 12.5376C30.458 12.7488 30.4964 13.0176 30.4964 13.344C30.4964 13.6512 30.4484 13.9968 30.3524 14.3808C30.2564 14.7456 30.0548 15.456 29.7476 16.512C28.922 19.3536 28.5092 21.264 28.5092 22.2432C28.5092 22.8768 28.7012 23.1936 29.0852 23.1936C29.5652 23.1936 30.1316 22.7616 30.7844 21.8976C31.4756 20.9952 32.042 20.1216 32.4836 19.2768C32.9252 18.432 33.2804 17.7408 33.5492 17.2032C33.818 16.6656 34.0868 16.1088 34.3556 15.5328C34.6244 14.9376 34.8356 14.448 34.9892 14.064C35.162 13.68 35.3252 13.3152 35.4788 12.9696C35.6324 12.6048 35.7092 12.4128 35.7092 12.3936C35.882 11.9904 36.074 11.7888 36.2852 11.7888C36.6308 11.7888 36.8804 12.0384 37.034 12.5376C37.1108 12.768 37.1492 13.0464 37.1492 13.3728C37.1492 13.6992 37.1108 14.0448 37.034 14.4096C36.9572 14.7552 36.8324 15.2736 36.6596 15.9648C36.4868 16.656 36.3524 17.2224 36.2564 17.664C36.1604 18.1056 36.0452 18.6432 35.9108 19.2768C35.7188 20.3328 35.6228 21.2736 35.6228 22.0992C35.6228 22.9056 35.8436 23.3088 36.2852 23.3088ZM51.9964 7.8432C51.4396 9.8592 50.998 11.5392 50.6716 12.8832C50.3644 14.208 50.0188 15.7536 49.6348 17.52C49.27 19.2672 49.0876 20.6688 49.0876 21.7248C49.0876 22.7808 49.3276 23.3088 49.8076 23.3088C50.326 23.3088 51.0364 22.6464 51.9388 21.3216C52.8604 19.9968 53.6476 18.672 54.3004 17.3472L55.2508 15.36H56.0284C55.9132 15.5904 55.7596 15.9072 55.5676 16.3104C55.3948 16.6944 55.0396 17.3952 54.502 18.4128C53.9644 19.4112 53.446 20.2944 52.9468 21.0624C52.4668 21.8304 51.9196 22.5312 51.3052 23.1648C50.6908 23.7792 50.1628 24.0864 49.7212 24.0864C48.3388 24.0864 47.6476 23.0688 47.6476 21.0336C47.6476 20.2848 47.7532 19.3056 47.9644 18.096H47.734C45.6028 22.0512 43.8748 24.0288 42.55 24.0288C41.0332 24.0288 40.2748 22.8864 40.2748 20.6016C40.2748 19.2768 40.6204 17.8272 41.3116 16.2528C42.2716 14.1216 43.4908 12.7296 44.9692 12.0768C45.4876 11.8656 46.006 11.76 46.5244 11.76C47.062 11.76 47.4844 11.9136 47.7916 12.2208C48.0988 12.528 48.2524 12.8736 48.2524 13.2576C48.2524 13.4304 48.1564 13.5168 47.9644 13.5168C47.7916 13.4976 47.7052 13.4016 47.7052 13.2288C47.7052 13.056 47.6092 12.9024 47.4172 12.768C47.2444 12.6144 46.9852 12.5376 46.6396 12.5376C45.43 12.5376 44.3356 13.6224 43.3564 15.792C42.4348 17.808 41.974 19.7184 41.974 21.5232C41.974 22.6368 42.214 23.1936 42.694 23.1936C43.3468 23.1936 44.1628 22.4832 45.142 21.0624C46.1212 19.6416 46.9756 18.1152 47.7052 16.4832C48.454 14.8512 48.982 13.3632 49.2892 12.0192C49.6156 10.656 50.1052 8.8032 50.758 6.4608C51.1804 4.944 51.7372 4.1856 52.4284 4.1856C52.582 4.1856 52.6972 4.2432 52.774 4.3584C52.8508 4.4544 52.8796 4.56 52.8604 4.6752C52.8412 4.7712 52.5532 5.8272 51.9964 7.8432ZM58.2964 6.7488C58.738 6.7488 58.9588 7.0464 58.9588 7.6416C58.9588 8.2368 58.6708 8.7168 58.0948 9.0816C57.8068 9.2736 57.5572 9.3696 57.346 9.3696C57.0388 9.3696 56.8564 9.2736 56.7988 9.0816L56.77 8.9952C56.9428 8.9952 57.0676 8.8128 57.1444 8.448C57.2212 8.064 57.3364 7.6896 57.49 7.3248C57.6628 6.9408 57.9316 6.7488 58.2964 6.7488ZM56.4532 23.3088C56.9524 23.3088 57.6532 22.6464 58.5556 21.3216C59.458 19.9968 60.2356 18.672 60.8884 17.3472L61.8676 15.36H62.6452C62.53 15.5904 62.3764 15.9072 62.1844 16.3104C62.0116 16.6944 61.6564 17.3952 61.1188 18.4128C60.5812 19.4112 60.0628 20.2944 59.5636 21.0624C59.0836 21.8304 58.5364 22.5312 57.922 23.1648C57.3268 23.7792 56.8084 24.0864 56.3668 24.0864C54.946 24.0864 54.2356 23.1648 54.2356 21.3216C54.2356 19.9392 54.6292 17.6928 55.4164 14.5824C55.4932 14.256 55.5508 14.0064 55.5892 13.8336C55.6468 13.6608 55.7044 13.44 55.762 13.1712C55.8196 12.8832 55.8772 12.624 55.9348 12.3936C56.0308 11.9904 56.2036 11.7888 56.4532 11.7888C56.7988 11.7888 57.0484 12.0384 57.202 12.5376C57.2788 12.768 57.3172 13.0464 57.3172 13.3728C57.3172 13.6992 57.2788 14.0448 57.202 14.4096C57.1252 14.7552 57.0004 15.2736 56.8276 15.9648C56.6548 16.656 56.5204 17.2224 56.4244 17.664C56.3284 18.1056 56.2228 18.6432 56.1076 19.2768C55.8964 20.3328 55.7908 21.2736 55.7908 22.0992C55.7908 22.9056 56.0116 23.3088 56.4532 23.3088ZM62.6306 24.0288C61.1138 24.0288 60.3554 22.8864 60.3554 20.6016C60.3554 19.2768 60.701 17.8272 61.3922 16.2528C62.3522 14.1216 63.5714 12.7296 65.0498 12.0768C65.5682 11.8656 66.0866 11.76 66.605 11.76C67.1426 11.76 67.565 11.9136 67.8722 12.2208C68.1794 12.528 68.333 12.8736 68.333 13.2576C68.333 13.4304 68.237 13.5168 68.045 13.5168C67.8722 13.4976 67.7858 13.4016 67.7858 13.2288C67.7858 13.056 67.6898 12.9024 67.4978 12.768C67.325 12.6144 67.0658 12.5376 66.7202 12.5376C65.5106 12.5376 64.4162 13.6224 63.437 15.792C62.5154 17.808 62.0546 19.7184 62.0546 21.5232C62.0546 22.6368 62.2946 23.1936 62.7746 23.1936C63.2738 23.1936 63.869 22.7808 64.5602 21.9552C65.2706 21.1104 65.9234 20.1312 66.5186 19.0176C67.805 16.6752 68.5634 15.168 68.7938 14.496C69.0242 13.824 69.2738 13.488 69.5426 13.488C70.0226 13.488 70.2626 13.8912 70.2626 14.6976C70.2626 14.9472 70.2338 15.2352 70.1762 15.5616C69.5426 18.6336 69.197 20.4096 69.1394 20.8896C69.101 21.3696 69.0818 21.7152 69.0818 21.9264C69.0818 22.848 69.3026 23.3088 69.7442 23.3088C70.2434 23.3088 70.9442 22.6464 71.8466 21.3216C72.749 19.9968 73.5266 18.672 74.1794 17.3472L75.1586 15.36H75.9362C75.821 15.5904 75.6674 15.9072 75.4754 16.3104C75.3026 16.6944 74.9474 17.3952 74.4098 18.4128C73.8722 19.4112 73.3538 20.2944 72.8546 21.0624C72.3746 21.8304 71.8274 22.5312 71.213 23.1648C70.6178 23.7792 70.0994 24.0864 69.6578 24.0864C68.237 24.0864 67.5266 23.0496 67.5266 20.976C67.5266 20.2848 67.6034 19.4784 67.757 18.5568H67.5554C65.597 22.2048 63.9554 24.0288 62.6306 24.0288Z" fill="white"/>
</svg>
