<svg width="102" height="49" viewBox="0 0 102 49" fill="none" xmlns="http://www.w3.org/2000/svg">
<path d="M1.6496 32.4608C0.8048 30.8736 0.3824 29.0048 0.3824 26.8544C0.3824 24.8576 0.7152 23.0784 1.3808 21.5168C2.072 19.9296 2.8144 18.6624 3.608 17.7152C4.4272 16.7424 5.4128 15.9744 6.5648 15.4112C7.7424 14.8224 8.984 14.528 10.2896 14.528C12.1328 14.528 13.6048 15.0528 14.7056 16.1024L19.736 11.8784C19.6336 10.9824 19.5824 10.0992 19.5824 9.2288C19.5824 3.5456 21.08 0.704 24.0752 0.704C24.8432 0.704 25.4448 0.9728 25.88 1.5104C26.3152 2.048 26.5584 2.7392 26.6096 3.584C26.6352 4.8128 26.2384 6.0416 25.4192 7.2704C24.6256 8.4992 23.448 9.8432 21.8864 11.3024C22.68 16.6016 23.0768 20.2112 23.0768 22.1312C23.0768 24.0256 22.8336 25.8688 22.3472 27.6608C21.8608 29.4272 21.1184 31.04 20.12 32.4992C19.1216 33.9584 17.752 35.0976 16.0112 35.9168C14.2704 36.736 12.248 37.1456 9.944 37.1456C6.6416 37.1456 4.1456 36.0192 2.456 33.7664C1.9952 35.3792 1.7648 37.2096 1.7648 39.2576C1.7648 41.3312 2.3024 43.1872 3.3776 44.8256C4.4784 46.4896 5.8864 47.3216 7.6016 47.3216C7.7296 47.3216 7.7936 47.4496 7.7936 47.7056C7.8192 47.9616 7.7552 48.0896 7.6016 48.0896C5.5792 48.0896 3.9152 47.1296 2.6096 45.2096C1.304 43.3152 0.6512 41.2032 0.6512 38.8736C0.6512 36.544 0.984 34.4064 1.6496 32.4608ZM15.3584 16.832C16.0752 17.8048 16.4336 18.9056 16.4336 20.1344C16.4336 21.3376 16.2416 22.4256 15.8576 23.3984C15.4992 24.3456 14.8464 25.1904 13.8992 25.9328C12.9776 26.6496 11.9024 27.008 10.6736 27.008C10.4176 27.008 10.2128 26.944 10.0592 26.816C9.9312 26.688 9.8416 26.4832 9.7904 26.2016C10.8912 26.2016 11.9024 25.6896 12.824 24.6656C14.1552 23.232 14.8208 21.6192 14.8208 19.8272C14.8208 19.0848 14.68 18.368 14.3984 17.6768C11.5312 20.1344 9.112 22.5408 7.1408 24.896C5.1696 27.2512 3.7232 29.8112 2.8016 32.576C4.2608 34.9312 6.552 36.1088 9.6752 36.1088C11.5952 36.1088 13.272 35.6992 14.7056 34.88C16.1648 34.0864 17.304 32.9984 18.1232 31.616C19.736 28.9024 20.5424 25.6128 20.5424 21.7472C20.5424 20.8 20.312 17.92 19.8512 13.1072L15.3584 16.832ZM13.8224 16.8704C13.0032 16 11.8768 15.5648 10.4432 15.5648C9.0096 15.5648 7.7168 15.9104 6.5648 16.6016C4.44 17.8816 2.9168 20.032 1.9952 23.0528C1.5856 24.3328 1.3808 25.6512 1.3808 27.008C1.3808 28.5184 1.624 29.9136 2.1104 31.1936C3.8768 26.7648 7.7808 21.9904 13.8224 16.8704ZM21.5408 7.2704C21.5408 7.9616 21.6048 8.8832 21.7328 10.0352C24.2672 7.552 25.5344 5.4528 25.5344 3.7376C25.5344 2.4064 25.048 1.7408 24.0752 1.7408C22.3856 1.7408 21.5408 3.584 21.5408 7.2704Z" fill="#E38D0B"/>
<path d="M27.4561 15.2192C27.4561 14.9376 27.6353 14.7968 27.9937 14.7968H29.9904C30.1184 14.2848 30.2848 13.6448 30.4896 12.8768L31.0272 10.88C31.1808 10.2912 31.3088 9.7536 31.4112 9.2672C31.5392 8.7808 31.7696 8.5376 32.1025 8.5376C32.5376 8.5376 32.8448 8.8704 33.024 9.536C33.1008 9.8176 33.1393 10.1632 33.1393 10.5728C33.1393 10.9824 33.0624 11.5072 32.9088 12.1472L32.1792 14.7968H34.56C34.7904 14.7968 34.944 14.8736 35.0208 15.0272C35.1233 15.1808 35.1233 15.3344 35.0208 15.488C34.944 15.616 34.7904 15.68 34.56 15.68H31.9488C30.3616 21.6448 29.568 25.8688 29.568 28.352C29.568 30.1696 29.9776 31.0784 30.7968 31.0784C31.4624 31.0784 32.3968 30.1952 33.6 28.4288C34.8032 26.6624 35.84 24.896 36.7104 23.1296L38.016 20.48H39.0529C38.8992 20.7872 38.6944 21.2096 38.4384 21.7472C38.208 22.2592 37.7344 23.1936 37.0176 24.5504C36.3008 25.8816 35.6096 27.0592 34.944 28.0832C34.304 29.1072 33.5745 30.0416 32.7552 30.8864C31.9616 31.7056 31.2192 32.1152 30.5281 32.1152C29.8368 32.1152 29.2352 31.8976 28.7232 31.4624C28.2369 31.0016 27.9297 30.3616 27.8017 29.5424C27.6481 28.6976 27.5713 27.84 27.5713 26.9696C27.5713 24.9472 28.288 21.184 29.7216 15.68H27.9937C27.7889 15.68 27.6481 15.6288 27.5713 15.5264C27.4945 15.3984 27.4561 15.296 27.4561 15.2192ZM48.7136 31.0784C49.3792 31.0784 50.3136 30.1952 51.5168 28.4288C52.72 26.6624 53.7568 24.896 54.6272 23.1296L55.9328 20.48H56.9696C56.816 20.7872 56.6112 21.2096 56.3552 21.7472C56.1248 22.2592 55.6512 23.1936 54.9344 24.5504C54.2176 25.8816 53.5264 27.0592 52.8608 28.0832C52.2208 29.1072 51.4912 30.0416 50.672 30.8864C49.8784 31.7056 49.1232 32.1152 48.4064 32.1152C47.6896 32.1152 47.1008 31.8976 46.64 31.4624C46.0768 30.8992 45.7952 29.9136 45.7952 28.5056C45.7952 27.0976 46.0384 25.2416 46.5248 22.9376H46.256C43.312 28.9792 40.8672 32 38.9216 32C37.2064 32 36.3488 30.8864 36.3488 28.6592C36.3488 27.0464 37.04 23.8336 38.4224 19.0208C38.7296 17.92 38.96 17.1008 39.1136 16.5632C39.2672 16 39.5104 15.7184 39.8432 15.7184C40.304 15.7184 40.6368 16.0512 40.8416 16.7168C40.944 16.9984 40.9952 17.3568 40.9952 17.792C40.9952 18.2016 40.9312 18.6624 40.8032 19.1744C40.6752 19.6608 40.4064 20.608 39.9968 22.016C38.896 25.8048 38.3456 28.352 38.3456 29.6576C38.3456 30.5024 38.6016 30.9248 39.1136 30.9248C39.7536 30.9248 40.5088 30.3488 41.3792 29.1968C42.3008 27.9936 43.056 26.8288 43.6448 25.7024C44.2336 24.576 44.7072 23.6544 45.0656 22.9376C45.424 22.2208 45.7824 21.4784 46.1408 20.7104C46.4992 19.9168 46.7808 19.264 46.9856 18.752C47.216 18.24 47.4336 17.7536 47.6384 17.2928C47.8432 16.8064 47.9456 16.5504 47.9456 16.5248C48.176 15.9872 48.432 15.7184 48.7136 15.7184C49.1744 15.7184 49.5072 16.0512 49.712 16.7168C49.8144 17.024 49.8656 17.3952 49.8656 17.8304C49.8656 18.2656 49.8144 18.7264 49.712 19.2128C49.6096 19.6736 49.4432 20.3648 49.2128 21.2864C48.9824 22.208 48.8032 22.9632 48.6752 23.552C48.5472 24.1408 48.3936 24.8576 48.2144 25.7024C47.9584 27.1104 47.8304 28.3648 47.8304 29.4656C47.8304 30.5408 48.1248 31.0784 48.7136 31.0784ZM69.6619 10.4576C68.9195 13.1456 68.3307 15.3856 67.8955 17.1776C67.4859 18.944 67.0251 21.0048 66.5131 23.36C66.0267 25.6896 65.7835 27.5584 65.7835 28.9664C65.7835 30.3744 66.1035 31.0784 66.7435 31.0784C67.4347 31.0784 68.3819 30.1952 69.5851 28.4288C70.8139 26.6624 71.8635 24.896 72.7339 23.1296L74.0011 20.48H75.0379C74.8843 20.7872 74.6795 21.2096 74.4235 21.7472C74.1931 22.2592 73.7195 23.1936 73.0027 24.5504C72.2859 25.8816 71.5947 27.0592 70.9291 28.0832C70.2891 29.1072 69.5595 30.0416 68.7403 30.8864C67.9211 31.7056 67.2171 32.1152 66.6283 32.1152C64.7851 32.1152 63.8635 30.7584 63.8635 28.0448C63.8635 27.0464 64.0043 25.7408 64.2859 24.128H63.9787C61.1371 29.4016 58.8331 32.0384 57.0667 32.0384C55.0443 32.0384 54.0331 30.5152 54.0331 27.4688C54.0331 25.7024 54.4939 23.7696 55.4155 21.6704C56.6955 18.8288 58.3211 16.9728 60.2923 16.1024C60.9835 15.8208 61.6747 15.68 62.3659 15.68C63.0827 15.68 63.6459 15.8848 64.0555 16.2944C64.4651 16.704 64.6699 17.1648 64.6699 17.6768C64.6699 17.9072 64.5419 18.0224 64.2859 18.0224C64.0555 17.9968 63.9403 17.8688 63.9403 17.6384C63.9403 17.408 63.8123 17.2032 63.5563 17.024C63.3259 16.8192 62.9803 16.7168 62.5195 16.7168C60.9067 16.7168 59.4475 18.1632 58.1419 21.056C56.9131 23.744 56.2987 26.2912 56.2987 28.6976C56.2987 30.1824 56.6187 30.9248 57.2587 30.9248C58.1291 30.9248 59.2171 29.9776 60.5227 28.0832C61.8283 26.1888 62.9675 24.1536 63.9403 21.9776C64.9387 19.8016 65.6427 17.8176 66.0523 16.0256C66.4875 14.208 67.1403 11.7376 68.0107 8.6144C68.5739 6.592 69.3163 5.5808 70.2379 5.5808C70.4427 5.5808 70.5963 5.6576 70.6987 5.8112C70.8011 5.9392 70.8395 6.08 70.8139 6.2336C70.7883 6.3616 70.4043 7.7696 69.6619 10.4576ZM78.0619 8.9984C78.6507 8.9984 78.9451 9.3952 78.9451 10.1888C78.9451 10.9824 78.5611 11.6224 77.7931 12.1088C77.4091 12.3648 77.0763 12.4928 76.7947 12.4928C76.3851 12.4928 76.1419 12.3648 76.0651 12.1088L76.0267 11.9936C76.2571 11.9936 76.4235 11.7504 76.5259 11.264C76.6283 10.752 76.7819 10.2528 76.9867 9.7664C77.2171 9.2544 77.5755 8.9984 78.0619 8.9984ZM75.6043 31.0784C76.2699 31.0784 77.2043 30.1952 78.4075 28.4288C79.6107 26.6624 80.6475 24.896 81.5179 23.1296L82.8235 20.48H83.8603C83.7067 20.7872 83.5019 21.2096 83.2459 21.7472C83.0155 22.2592 82.5419 23.1936 81.8251 24.5504C81.1083 25.8816 80.4171 27.0592 79.7515 28.0832C79.1115 29.1072 78.3819 30.0416 77.5627 30.8864C76.7691 31.7056 76.0779 32.1152 75.4891 32.1152C73.5947 32.1152 72.6475 30.8864 72.6475 28.4288C72.6475 26.5856 73.1723 23.5904 74.2219 19.4432C74.3243 19.008 74.4011 18.6752 74.4523 18.4448C74.5291 18.2144 74.6059 17.92 74.6827 17.5616C74.7595 17.1776 74.8363 16.832 74.9131 16.5248C75.0411 15.9872 75.2715 15.7184 75.6043 15.7184C76.0651 15.7184 76.3979 16.0512 76.6027 16.7168C76.7051 17.024 76.7563 17.3952 76.7563 17.8304C76.7563 18.2656 76.7051 18.7264 76.6027 19.2128C76.5003 19.6736 76.3339 20.3648 76.1035 21.2864C75.8731 22.208 75.6939 22.9632 75.5659 23.552C75.4379 24.1408 75.2971 24.8576 75.1435 25.7024C74.8619 27.1104 74.7211 28.3648 74.7211 29.4656C74.7211 30.5408 75.0155 31.0784 75.6043 31.0784ZM83.8408 32.0384C81.8184 32.0384 80.8072 30.5152 80.8072 27.4688C80.8072 25.7024 81.268 23.7696 82.1896 21.6704C83.4696 18.8288 85.0952 16.9728 87.0664 16.1024C87.7576 15.8208 88.4488 15.68 89.14 15.68C89.8568 15.68 90.42 15.8848 90.8296 16.2944C91.2392 16.704 91.444 17.1648 91.444 17.6768C91.444 17.9072 91.316 18.0224 91.06 18.0224C90.8296 17.9968 90.7144 17.8688 90.7144 17.6384C90.7144 17.408 90.5864 17.2032 90.3304 17.024C90.1 16.8192 89.7544 16.7168 89.2936 16.7168C87.6808 16.7168 86.2216 18.1632 84.916 21.056C83.6872 23.744 83.0728 26.2912 83.0728 28.6976C83.0728 30.1824 83.3928 30.9248 84.0328 30.9248C84.6984 30.9248 85.492 30.3744 86.4136 29.2736C87.3608 28.1472 88.2312 26.8416 89.0248 25.3568C90.74 22.2336 91.7512 20.224 92.0584 19.328C92.3656 18.432 92.6984 17.984 93.0568 17.984C93.6968 17.984 94.0168 18.5216 94.0168 19.5968C94.0168 19.9296 93.9784 20.3136 93.9016 20.7488C93.0568 24.8448 92.596 27.2128 92.5192 27.8528C92.468 28.4928 92.4424 28.9536 92.4424 29.2352C92.4424 30.464 92.7368 31.0784 93.3256 31.0784C93.9912 31.0784 94.9256 30.1952 96.1288 28.4288C97.332 26.6624 98.3688 24.896 99.2392 23.1296L100.545 20.48H101.582C101.428 20.7872 101.223 21.2096 100.967 21.7472C100.737 22.2592 100.263 23.1936 99.5464 24.5504C98.8296 25.8816 98.1384 27.0592 97.4728 28.0832C96.8328 29.1072 96.1032 30.0416 95.284 30.8864C94.4904 31.7056 93.7992 32.1152 93.2104 32.1152C91.316 32.1152 90.3688 30.7328 90.3688 27.968C90.3688 27.0464 90.4712 25.9712 90.676 24.7424H90.4072C87.796 29.6064 85.6072 32.0384 83.8408 32.0384Z" fill="black"/>
</svg>
