<svg width="40" height="40" viewBox="0 0 40 40" fill="none" xmlns="http://www.w3.org/2000/svg">
<path fill-rule="evenodd" clip-rule="evenodd" d="M12.4417 1.77675C14.3967 1.68675 15.02 1.66675 20 1.66675C24.98 1.66675 25.6033 1.68841 27.5567 1.77675C29.51 1.86508 30.8433 2.17675 32.01 2.62841C33.2317 3.09008 34.34 3.81175 35.2567 4.74508C36.19 5.66008 36.91 6.76675 37.37 7.99008C37.8233 9.15675 38.1333 10.4901 38.2233 12.4401C38.3133 14.3984 38.3333 15.0217 38.3333 20.0001C38.3333 24.9801 38.3117 25.6034 38.2233 27.5584C38.135 29.5084 37.8233 30.8417 37.37 32.0084C36.91 33.2319 36.1888 34.3404 35.2567 35.2567C34.34 36.1901 33.2317 36.9101 32.01 37.3701C30.8433 37.8234 29.51 38.1334 27.56 38.2234C25.6033 38.3134 24.98 38.3334 20 38.3334C15.02 38.3334 14.3967 38.3117 12.4417 38.2234C10.4917 38.1351 9.15832 37.8234 7.99166 37.3701C6.76819 36.91 5.65969 36.1888 4.74332 35.2567C3.81062 34.3412 3.08885 33.2332 2.62832 32.0101C2.17666 30.8434 1.86666 29.5101 1.77666 27.5601C1.68666 25.6017 1.66666 24.9784 1.66666 20.0001C1.66666 15.0201 1.68832 14.3967 1.77666 12.4434C1.86499 10.4901 2.17666 9.15675 2.62832 7.99008C3.08953 6.76688 3.81185 5.65894 4.74499 4.74341C5.66006 3.81092 6.76744 3.08915 7.98999 2.62841C9.15666 2.17675 10.49 1.86675 12.44 1.77675H12.4417ZM27.4083 5.07675C25.475 4.98841 24.895 4.97008 20 4.97008C15.105 4.97008 14.525 4.98841 12.5917 5.07675C10.8033 5.15841 9.83332 5.45675 9.18666 5.70842C8.33166 6.04175 7.71999 6.43675 7.07832 7.07842C6.47007 7.67017 6.00196 8.39055 5.70832 9.18675C5.45666 9.83342 5.15832 10.8034 5.07666 12.5917C4.98832 14.5251 4.96999 15.1051 4.96999 20.0001C4.96999 24.8951 4.98832 25.4751 5.07666 27.4084C5.15832 29.1967 5.45666 30.1667 5.70832 30.8134C6.00166 31.6084 6.46999 32.3301 7.07832 32.9217C7.66999 33.5301 8.39166 33.9984 9.18666 34.2918C9.83332 34.5434 10.8033 34.8418 12.5917 34.9234C14.525 35.0117 15.1033 35.0301 20 35.0301C24.8967 35.0301 25.475 35.0117 27.4083 34.9234C29.1967 34.8418 30.1667 34.5434 30.8133 34.2918C31.6683 33.9584 32.28 33.5634 32.9217 32.9217C33.53 32.3301 33.9983 31.6084 34.2917 30.8134C34.5433 30.1667 34.8417 29.1967 34.9233 27.4084C35.0117 25.4751 35.03 24.8951 35.03 20.0001C35.03 15.1051 35.0117 14.5251 34.9233 12.5917C34.8417 10.8034 34.5433 9.83342 34.2917 9.18675C33.9583 8.33175 33.5633 7.72008 32.9217 7.07842C32.3299 6.4702 31.6095 6.0021 30.8133 5.70842C30.1667 5.45675 29.1967 5.15841 27.4083 5.07675ZM17.6583 25.6517C18.9661 26.1961 20.4223 26.2696 21.7782 25.8596C23.1341 25.4496 24.3056 24.5816 25.0927 23.4038C25.8797 22.226 26.2334 20.8115 26.0934 19.4019C25.9534 17.9923 25.3283 16.675 24.325 15.6751C23.6854 15.0359 22.912 14.5464 22.0605 14.242C21.2091 13.9376 20.3007 13.8257 19.4008 13.9144C18.5009 14.0032 17.6319 14.2904 16.8563 14.7553C16.0808 15.2202 15.4179 15.8513 14.9155 16.6032C14.4131 17.355 14.0836 18.2089 13.9509 19.1033C13.8181 19.9978 13.8852 20.9106 14.1476 21.7759C14.4099 22.6413 14.8608 23.4378 15.4679 24.108C16.0749 24.7781 16.823 25.3054 17.6583 25.6517ZM13.3367 13.3367C14.2117 12.4617 15.2505 11.7676 16.3938 11.294C17.5371 10.8204 18.7625 10.5767 20 10.5767C21.2375 10.5767 22.4629 10.8204 23.6062 11.294C24.7495 11.7676 25.7883 12.4617 26.6633 13.3367C27.5384 14.2118 28.2325 15.2506 28.7061 16.3939C29.1796 17.5372 29.4234 18.7626 29.4234 20.0001C29.4234 21.2376 29.1796 22.463 28.7061 23.6063C28.2325 24.7495 27.5384 25.7884 26.6633 26.6634C24.8961 28.4306 22.4992 29.4235 20 29.4235C17.5008 29.4235 15.1039 28.4306 13.3367 26.6634C11.5694 24.8962 10.5766 22.4993 10.5766 20.0001C10.5766 17.5008 11.5694 15.104 13.3367 13.3367ZM31.5133 11.9801C31.7302 11.7755 31.9038 11.5296 32.0238 11.2567C32.1439 10.9839 32.208 10.6897 32.2124 10.3916C32.2167 10.0936 32.1612 9.79766 32.0491 9.52143C31.9371 9.2452 31.7707 8.99427 31.5599 8.78348C31.3491 8.57269 31.0982 8.40634 30.822 8.29428C30.5457 8.18221 30.2498 8.12671 29.9518 8.13105C29.6537 8.1354 29.3595 8.1995 29.0867 8.31958C28.8139 8.43965 28.5679 8.61324 28.3633 8.83008C27.9655 9.2518 27.7477 9.81195 27.7562 10.3916C27.7646 10.9713 27.9986 11.5249 28.4086 11.9348C28.8185 12.3448 29.3721 12.5788 29.9518 12.5872C30.5315 12.5957 31.0916 12.3779 31.5133 11.9801Z" fill="white"/>
</svg>
