<svg width="40" height="40" viewBox="0 0 40 40" fill="none" xmlns="http://www.w3.org/2000/svg">
<path d="M39.405 8.22854C38.0133 8.84521 36.5183 9.26188 34.9467 9.45021C36.5683 8.47986 37.7816 6.95265 38.36 5.15354C36.8364 6.05853 35.1689 6.69553 33.43 7.03688C32.2606 5.78832 30.7118 4.96075 29.0239 4.68267C27.336 4.40458 25.6035 4.69153 24.0954 5.49896C22.5873 6.3064 21.388 7.58915 20.6836 9.14805C19.9792 10.707 19.8092 12.4548 20.2 14.1202C17.1128 13.9652 14.0927 13.1628 11.3357 11.7651C8.5787 10.3673 6.1464 8.40548 4.19666 6.00688C3.52999 7.15688 3.14666 8.49021 3.14666 9.91021C3.14592 11.1885 3.46072 12.4473 4.06313 13.5748C4.66554 14.7022 5.53693 15.6636 6.59999 16.3735C5.36712 16.3343 4.16145 16.0012 3.08333 15.4019V15.5019C3.0832 17.2948 3.70338 19.0325 4.83863 20.4202C5.97388 21.8079 7.55428 22.7601 9.31166 23.1152C8.16797 23.4247 6.96889 23.4703 5.80499 23.2485C6.30082 24.7912 7.26665 26.1403 8.56727 27.1068C9.86789 28.0733 11.4382 28.6088 13.0583 28.6385C10.3081 30.7976 6.91147 31.9687 3.41499 31.9635C2.79563 31.9637 2.17679 31.9275 1.56166 31.8552C5.11079 34.1372 9.24223 35.3482 13.4617 35.3435C27.745 35.3435 35.5533 23.5135 35.5533 13.2535C35.5533 12.9202 35.545 12.5835 35.53 12.2502C37.0488 11.1518 38.3598 9.7917 39.4017 8.23354L39.405 8.22854Z" fill="white"/>
</svg>
